<svg width="750" height="58" viewBox="0 0 750 58" fill="none" xmlns="http://www.w3.org/2000/svg">
<path d="M25.08 58V9.04H0.6V0.399998H58.2V9.04H33.72V58H25.08ZM103.943 58V0.399998H112.583V58H103.943ZM161.293 58V0.399998H171.613L193.933 26.96L216.173 0.399998H226.573V58H217.853V12L193.933 40.48L169.933 12V58H161.293ZM275.671 58V0.399998H328.471V9.04H284.391V24.88H319.831V33.52H284.391V49.36H328.471V58H275.671ZM387.161 58C385.241 58 383.481 57.5467 381.881 56.64C380.335 55.68 379.081 54.4267 378.121 52.88C377.215 51.28 376.761 49.52 376.761 47.6V10.8C376.761 8.88 377.215 7.14666 378.121 5.6C379.081 4 380.335 2.74666 381.881 1.84C383.481 0.879998 385.241 0.399998 387.161 0.399998H434.201V9.04H388.361C387.508 9.04 386.788 9.33333 386.201 9.92C385.668 10.4533 385.401 11.1467 385.401 12V46.4C385.401 47.2533 385.668 47.9733 386.201 48.56C386.788 49.0933 387.508 49.36 388.361 49.36H434.201V58H387.161ZM482.623 58V0.399998H491.263V24.88H532.863V0.399998H541.583V58H532.863V33.52H491.263V58H482.623ZM590.749 58V0.399998H643.549V9.04H599.469V24.88H634.909V33.52H599.469V49.36H643.549V58H590.749ZM739.039 58L721.039 36.48H732.319L749.119 56.4V58H739.039ZM691.839 58V0.479997H738.959C740.879 0.479997 742.639 0.959997 744.239 1.92C745.839 2.88 747.093 4.16 747.999 5.76C748.959 7.30666 749.439 9.01333 749.439 10.88V27.04C749.439 28.96 748.959 30.72 747.999 32.32C747.093 33.8667 745.839 35.12 744.239 36.08C742.639 36.9867 740.879 37.44 738.959 37.44L700.479 37.52V58H691.839ZM702.479 28.72H738.799C739.333 28.72 739.786 28.5333 740.159 28.16C740.533 27.7867 740.719 27.3333 740.719 26.8V11.12C740.719 10.5867 740.533 10.1333 740.159 9.76C739.786 9.33333 739.333 9.12 738.799 9.12H702.479C701.946 9.12 701.466 9.33333 701.039 9.76C700.666 10.1333 700.479 10.5867 700.479 11.12V26.8C700.479 27.3333 700.666 27.7867 701.039 28.16C701.466 28.5333 701.946 28.72 702.479 28.72Z" fill="black"/>
</svg>
